<svg id="H2H_Logo_Horizontal_1_" data-name="H2H Logo Horizontal (1)" xmlns="http://www.w3.org/2000/svg" width="245.052" height="48" viewBox="0 0 245.052 48">
  <g id="Layer_3" data-name="Layer 3" transform="translate(26.394 10.973)">
    <path id="Path_1" data-name="Path 1" d="M276.961,174.412,276,187.5s0,.975.884.975h8.7s.807,0,.807-1.1l2.256-30.252-4.323-5.678-6.129,6.322Z" transform="translate(-276 -151.45)" fill="#e60c2b"/>
  </g>
  <g id="Layer_2" data-name="Layer 2" transform="translate(1.732 25.548)">
    <path id="Path_2" data-name="Path 2" d="M91.758,261.557l-1.612,21.1s-.169,1.1.89,1.1h8.342s1.154,0,1.154-1.032l1.226-16.065-10-5.354Z" transform="translate(-90.136 -261.3)" fill="#e60c2b"/>
  </g>
  <g id="Layer_8" data-name="Layer 8" transform="translate(6.516 2.065)">
    <path id="Path_3" data-name="Path 3" d="M158.577,104.632s-7.032,13.737-31.936-20.322l-.451,4.839s14.581,21.934,28,19.483a5.247,5.247,0,0,0,4.388-4h0" transform="translate(-126.19 -84.31)" fill="#fe934b"/>
  </g>
  <g id="Layer_7" data-name="Layer 7">
    <path id="Path_4" data-name="Path 4" d="M77.08,76.1S94.37,94.681,102.435,96.3s11.1,5.29,13.548-5.161h0s-4.968,13.87-27.484-10.9L77.79,68.75Z" transform="translate(-77.08 -68.75)" fill="#f98334"/>
  </g>
  <g id="Layer_6" data-name="Layer 6" transform="translate(1.226 9.419)">
    <path id="Path_5" data-name="Path 5" d="M86.32,147.611s18.516,18.129,32.579,13.161c0,0,5.1-.9,5.1-8.065h0s-3.807,20-36.839-12.967Z" transform="translate(-86.32 -139.74)" fill="#fa7419"/>
  </g>
  <g id="Layer_5" data-name="Layer 5" transform="translate(3.032 19.418)">
    <path id="Path_6" data-name="Path 6" d="M99.93,221.23s17.1,12.963,31.355,6.839a9.022,9.022,0,0,0,4.511-10s.322,20.964-35.294-2.968Z" transform="translate(-99.93 -215.1)" fill="#ff6700"/>
  </g>
  <g id="Layer_9" data-name="Layer 9" transform="translate(48.284 16.349)">
    <path id="Path_7" data-name="Path 7" d="M458.869,194.727a.736.736,0,0,1,.61.251.842.842,0,0,1,.252.61v21.26a.742.742,0,0,1-.252.61.837.837,0,0,1-.61.252h-2.654a.738.738,0,0,1-.61-.252.842.842,0,0,1-.252-.61v-8.655H445.4v8.691a.74.74,0,0,1-.251.612.844.844,0,0,1-.61.251h-2.693a.744.744,0,0,1-.612-.251.866.866,0,0,1-.251-.648v-21.23a.8.8,0,0,1,.251-.61.841.841,0,0,1,.612-.251H444.5a.74.74,0,0,1,.612.251.841.841,0,0,1,.251.61v8.44h9.951v-8.435a.788.788,0,0,1,.252-.61.836.836,0,0,1,.61-.251h2.694Z" transform="translate(-440.984 -194.359)" fill="#e60c2b"/>
    <path id="Path_8" data-name="Path 8" d="M655.382,194.727a.736.736,0,0,1,.61.251.842.842,0,0,1,.252.61v13.467a10.989,10.989,0,0,1-.575,3.7,7.439,7.439,0,0,1-1.761,2.838,7.887,7.887,0,0,1-2.944,1.831,13.393,13.393,0,0,1-8.226,0,7.9,7.9,0,0,1-2.946-1.831,7.43,7.43,0,0,1-1.759-2.837,10.958,10.958,0,0,1-.575-3.7V195.624a.8.8,0,0,1,.251-.61.841.841,0,0,1,.616-.252h2.654a.741.741,0,0,1,.612.251.841.841,0,0,1,.251.61v13.326a6.3,6.3,0,0,0,.36,2.3,3.98,3.98,0,0,0,1.006,1.544,4.029,4.029,0,0,0,1.579.9,7.178,7.178,0,0,0,4.023,0,3.648,3.648,0,0,0,1.58-.9,4.356,4.356,0,0,0,1.042-1.544,6.287,6.287,0,0,0,.4-2.3V195.624a.788.788,0,0,1,.252-.61.836.836,0,0,1,.61-.251h2.693Z" transform="translate(-611.388 -194.359)" fill="#e60c2b"/>
    <path id="Path_9" data-name="Path 9" d="M835.118,218a.74.74,0,0,1-.61-.251.842.842,0,0,1-.252-.612v-21.3a.788.788,0,0,1,.252-.61.836.836,0,0,1,.61-.251h9.7a8.446,8.446,0,0,1,3.52.646,6.743,6.743,0,0,1,2.256,1.616,6.008,6.008,0,0,1,1.221,2.123,6.791,6.791,0,0,1,.4,2.123,5.385,5.385,0,0,1-.251,1.759,5.754,5.754,0,0,1-.647,1.327,6.593,6.593,0,0,1-.754.9,4.913,4.913,0,0,1-.61.5,7.431,7.431,0,0,1,1.867,1.939,5.586,5.586,0,0,1,.862,3.2,6.738,6.738,0,0,1-.467,2.479,7.193,7.193,0,0,1-1.36,2.221,6.415,6.415,0,0,1-2.228,1.58,7.5,7.5,0,0,1-3.088.61Zm12.677-16.412a2.3,2.3,0,0,0-.789-1.9,4,4,0,0,0-2.521-.646h-5.812V204.1h5.818a4.013,4.013,0,0,0,2.521-.646A2.181,2.181,0,0,0,847.795,201.589Zm-9.122,12.281h6.069a3.716,3.716,0,0,0,2.654-.789,2.513,2.513,0,0,0,.827-2.011,2.684,2.684,0,0,0-.862-2.046,3.694,3.694,0,0,0-2.622-.8h-6.065Z" transform="translate(-782.074 -194.578)" fill="#e60c2b"/>
    <path id="Path_10" data-name="Path 10" d="M1028.327,203.025a3.813,3.813,0,0,0,1.258-1.616,4.833,4.833,0,0,0,.287-1.507,3.477,3.477,0,0,0-.825-2.3,3.527,3.527,0,0,0-2.729-.929,3.383,3.383,0,0,0-2.654.9,4.885,4.885,0,0,0-1.185,2.262,1.011,1.011,0,0,1-.4.648.959.959,0,0,1-.575.215h-2.586a.864.864,0,0,1-.9-.824V199.8a7.747,7.747,0,0,1,.755-2.8,7.85,7.85,0,0,1,1.759-2.3,7.739,7.739,0,0,1,2.586-1.544,8.433,8.433,0,0,1,3.2-.575,8.552,8.552,0,0,1,3.59.682,8.078,8.078,0,0,1,2.521,1.761,7.471,7.471,0,0,1,1.473,2.37,7.3,7.3,0,0,1,.466,2.586,10.384,10.384,0,0,1-.115,1.545,4.683,4.683,0,0,1-.467,1.471,7.224,7.224,0,0,1-1.042,1.544,14.425,14.425,0,0,1-1.831,1.725l-6.069,5.566H1034a.743.743,0,0,1,.61.252.836.836,0,0,1,.251.61v2.334a.736.736,0,0,1-.251.61.837.837,0,0,1-.61.252h-15.369a.739.739,0,0,1-.61-.252.841.841,0,0,1-.251-.61v-2.015a1.579,1.579,0,0,1,.322-.97,2.139,2.139,0,0,1,.576-.575Z" transform="translate(-941.239 -192.495)" fill="#ff6700"/>
    <path id="Path_11" data-name="Path 11" d="M1214.009,194.727a.737.737,0,0,1,.61.251.838.838,0,0,1,.252.61v21.26a.742.742,0,0,1-.252.61.837.837,0,0,1-.61.252h-2.654a.739.739,0,0,1-.61-.252.841.841,0,0,1-.251-.61v-8.655h-9.951v8.691a.741.741,0,0,1-.251.612.841.841,0,0,1-.61.251h-2.654a.741.741,0,0,1-.61-.251.873.873,0,0,1-.252-.647v-21.23a.788.788,0,0,1,.252-.61.836.836,0,0,1,.61-.251h2.654a.736.736,0,0,1,.61.251.843.843,0,0,1,.252.61v8.44h9.951v-8.435a.787.787,0,0,1,.251-.61.839.839,0,0,1,.61-.251h2.654Z" transform="translate(-1095.964 -194.359)" fill="#e60c2b"/>
    <path id="Path_12" data-name="Path 12" d="M1386.787,200.92a11.382,11.382,0,0,1,.718-3.483,8.133,8.133,0,0,1,1.8-2.837,8.513,8.513,0,0,1,2.944-1.9,11.44,11.44,0,0,1,4.2-.722,11.257,11.257,0,0,1,4.166.682,8.515,8.515,0,0,1,2.944,1.9,8.111,8.111,0,0,1,1.8,2.837,10.921,10.921,0,0,1,.719,3.483c.036.431.036.862.036,1.365v3.13c0,.5-.036.969-.036,1.364a11.361,11.361,0,0,1-.719,3.484,8.122,8.122,0,0,1-1.8,2.837,8.68,8.68,0,0,1-2.98,1.9,13.293,13.293,0,0,1-8.4,0,8.031,8.031,0,0,1-2.944-1.9,7.814,7.814,0,0,1-1.8-2.837,12.051,12.051,0,0,1-.718-3.484c-.036-.431-.036-.861-.036-1.364v-3.126C1386.722,201.818,1386.752,201.351,1386.787,200.92Zm14.869.18a5.1,5.1,0,0,0-1.544-3.663,5.244,5.244,0,0,0-8.943,3.663c-.036.825-.072,1.759-.072,2.765s.036,1.939.072,2.765a5.092,5.092,0,0,0,1.544,3.663,5.244,5.244,0,0,0,8.943-3.663c.036-.827.072-1.759.072-2.765S1401.728,201.926,1401.656,201.1Z" transform="translate(-1261.201 -191.97)" fill="#e60c2b"/>
    <path id="Path_13" data-name="Path 13" d="M1594.462,206.448l6.248-10.846c.072-.107.252-.287.431-.539a1.194,1.194,0,0,1,.97-.358h2.226a.736.736,0,0,1,.61.251.842.842,0,0,1,.252.61v21.26a.742.742,0,0,1-.252.61.837.837,0,0,1-.61.252h-2.654a.738.738,0,0,1-.61-.252.836.836,0,0,1-.251-.61V203.971l-4.274,7.43a2.063,2.063,0,0,1-.467.539,1.08,1.08,0,0,1-.755.288H1593.6a1.027,1.027,0,0,1-.754-.288,3.015,3.015,0,0,1-.467-.539l-4.238-7.4V216.86a.74.74,0,0,1-.251.612.844.844,0,0,1-.61.251h-2.654a.741.741,0,0,1-.61-.251.843.843,0,0,1-.252-.612V195.6a.788.788,0,0,1,.252-.61.836.836,0,0,1,.61-.251h2.22a1.194,1.194,0,0,1,.97.358c.153.172.3.353.43.539Z" transform="translate(-1432.136 -194.338)" fill="#e60c2b"/>
    <path id="Path_14" data-name="Path 14" d="M1817.436,213.851a.743.743,0,0,1,.61.252.842.842,0,0,1,.251.61v2.334a.736.736,0,0,1-.251.61.84.84,0,0,1-.61.252H1803a.738.738,0,0,1-.61-.252.842.842,0,0,1-.252-.61v-21.23a.788.788,0,0,1,.252-.61.836.836,0,0,1,.61-.251h14.185a.736.736,0,0,1,.61.251.837.837,0,0,1,.252.61v2.335a.743.743,0,0,1-.252.61.841.841,0,0,1-.61.251h-10.629v5.244h9.912a.784.784,0,0,1,.61.251.838.838,0,0,1,.251.61v2.335a.738.738,0,0,1-.251.61.836.836,0,0,1-.61.251h-9.912v5.459h10.88Z" transform="translate(-1621.531 -194.559)" fill="#e60c2b"/>
  </g>
  <path id="Path_15" data-name="Path 15" d="M226.63,64.185l-3.617-4.673-.76-.982-.862.9-5.22,5.42-.141,1.919,6.122-6.357,4.343,5.613Z" transform="translate(-187.366 -50.764)" fill="#e60c2b"/>
</svg>
